<?xml version="1.0" encoding="UTF-8"?>
<svg xmlns="http://www.w3.org/2000/svg" xmlns:xlink="http://www.w3.org/1999/xlink" version="1.1" id="Layer_1" x="0px" y="0px" viewBox="0 0 100 100" style="enable-background:new 0 0 100 100;" xml:space="preserve">
  <style type="text/css"> .st0{fill-rule:evenodd;clip-rule:evenodd;} </style>
  <path class="st0" d="M86.91,83.59c-10,13.22-35.83,21.55-56.52,12.65C13.27,88.88,0.95,73.17,1.06,48.57c3.12,0,6.23,0,9.35,0 c-0.27,20.15,9.73,33.39,23.8,39.23c17.2,7.14,38.23-0.14,46.32-10.97c2.95-3.95,5.41-8.48,7.22-13.5 c1.39-3.85,2.27-10.29,1.27-14.76c-0.65-2.94-0.02-5.05-0.85-7.59c-4.65-14.3-14.38-23.76-29.32-27.84 c-4.68-1.28-10.52-0.88-16.15-0.84c0,0.98,0,1.97,0,2.95c-0.14,0-0.28,0-0.42,0c-2.32-3.14-8.35-4.23-9.78-8.02 c3.4-2.39,6.8-4.78,10.2-7.17c0,0.98,0,1.97,0,2.95c28.71-0.35,43.96,10.7,52.28,30.37c3.15,7.46,5.61,20.34,2.55,30.37 C95.21,71.4,91.24,77.87,86.91,83.59z M21.89,46.47c-0.43-2.39-0.85-4.78-1.28-7.17c2.44-1.1,4.14-2.54,5.95-4.22 c0.02-2.45,0.56-3.79,0.85-5.91c1.62-0.13,4.76-0.44,5.95-1.26c3.01-1.19,2.29-4.99,5.95-5.48c5.13,3.63,6.83-1.18,9.77-2.11 c2.46-0.78,4.3,2.91,5.95,3.38c2.41-0.42,4.82-0.84,7.22-1.27c1.11,2.42,2.56,4.11,4.25,5.91c2.46,0.02,3.82,0.56,5.95,0.84 c0.42,2.25,0.85,4.5,1.27,6.75c1.56,2.33,4.98,1.47,5.53,5.06c-3.63,5.05,1.13,6.81,2.12,9.7c0.82,2.38-2.94,4.32-3.4,5.9 c0.43,2.39,0.85,4.78,1.28,7.17c-2.44,1.1-4.14,2.54-5.95,4.22c-0.02,2.45-0.56,3.79-0.85,5.91c-1.62,0.13-4.76,0.44-5.95,1.26 c-3.01,1.19-2.29,4.99-5.95,5.48c-5.13-3.63-6.83,1.18-9.77,2.11c-2.46,0.78-4.3-2.91-5.95-3.37c-2.41,0.42-4.82,0.85-7.23,1.26 c-1.11-2.42-2.56-4.11-4.25-5.9c-1.98-0.28-3.97-0.56-5.95-0.84c-0.13-1.61-0.45-4.73-1.27-5.91c-1.2-2.99-5.03-2.28-5.53-5.9 c3.63-5.04-1.12-6.81-2.12-9.7C17.61,49.86,21.42,48.09,21.89,46.47z M52.91,62.92c-0.28,0-0.57,0-0.85,0c-1.24,0.84-3.79,0.3-5.1,0 c-0.53-3.45-1.25-4.81-5.53-4.64c-1.22,1.81-1.76,2.47-1.7,5.9c1.27,1.37,1.83,3.59,3.4,4.64c1.13,0.42,2.27,0.84,3.4,1.26 c0,0.7,0,1.41,0,2.11c0.43,2.75,1.88,2.95,5.1,2.95c0.38-0.57,1.48-1.2,1.7-1.69c0-1.13,0-2.25,0-3.38 c0.42-0.71,4.57-1.97,5.53-3.37c2.49-3.67,1-11.44,0-15.19c-1.68-1.04-2.94-2.77-5.1-3.37c-2.85-0.8-5.52,1.07-6.8-1.26 c-0.98-1.43-0.34-5.23,0-6.75c0.28,0,0.57,0,0.85,0c1.24-0.85,3.79-0.3,5.1,0c0.53,3.45,1.25,4.81,5.53,4.64 c1.22-1.81,1.76-2.47,1.7-5.91c-1.3-1.35-1.83-3.57-3.4-4.64c-1.13-0.42-2.27-0.84-3.4-1.26c0-1.13,0-2.25,0-3.38 c-0.23-0.5-1.32-1.09-1.7-1.69c-1.13,0-2.27,0-3.4,0c-0.38,0.6-1.47,1.18-1.7,1.69c-0.51,1.1,0.09,2.59-0.43,3.38 c-1.65,1.24-3.95,1.67-5.1,3.37c-2.47,3.66-1.03,11.45,0,15.19c1.68,1.04,2.94,2.77,5.1,3.37c2.85,0.8,5.52-1.06,6.8,1.27 C53.9,57.6,53.26,61.4,52.91,62.92z"></path>
</svg>
