<?xml version="1.0" encoding="UTF-8"?>
<svg xmlns="http://www.w3.org/2000/svg" xmlns:xlink="http://www.w3.org/1999/xlink" version="1.1" id="Layer_1" x="0px" y="0px" viewBox="0 0 100 100" style="enable-background:new 0 0 100 100;" xml:space="preserve">
  <style type="text/css"> .st0{fill:none;stroke:#000000;stroke-width:4.7088;stroke-linecap:round;stroke-linejoin:round;stroke-miterlimit:10;} </style>
  <g>
    <g>
      <path class="st0" d="M89.8,86v4.4c0,3.1-2.5,5.7-5.7,5.7c-3.1,0-5.7-2.5-5.7-5.7V86H89.8z"></path>
      <path class="st0" d="M84.1,96H17c-3.1,0-5.7-2.5-5.7-5.7V9.7C11.2,6.5,13.8,4,17,4h67.1c-3.1,0-5.7,2.5-5.7,5.7v80.7 C78.3,93.5,80.9,96,84.1,96z"></path>
      <path class="st0" d="M89.8,9.7V14H78.3V9.7c0-3.1,2.6-5.7,5.7-5.7C87.2,4,89.8,6.5,89.8,9.7z"></path>
      <path class="st0" d="M89.8,9.7V14H78.3V9.7c0-3.1,2.6-5.7,5.7-5.7C87.2,4,89.8,6.5,89.8,9.7z"></path>
    </g>
    <g>
      <g>
        <g>
          <path class="st0" d="M42.4,76.3l-4.6,13.4l-3.1-5.3l-5.7,2.4l5-14.7c0.1,0.9,0.3,1.8,0.9,2.2c1.2,0.9,3.6-0.5,5,0 C40.9,74.5,41.6,75.5,42.4,76.3z"></path>
        </g>
        <g>
          <path class="st0" d="M59.4,86.7l-5.7-2.4l-3.1,5.3l-4.6-13.6c0.7-0.7,1.4-1.6,2.2-1.9c1.4-0.5,3.8,0.8,5,0 c0.7-0.5,0.8-1.7,1-2.8L59.4,86.7z"></path>
        </g>
      </g>
      <g>
        <g>
          <path class="st0" d="M57.3,61.7c0,1.6,2,3.4,1.5,4.8c-0.5,1.5-3.2,1.8-4.1,3c-0.4,0.5-0.5,1.2-0.6,2c-0.2,1.1-0.3,2.3-1,2.8 c-1.2,0.9-3.6-0.5-5,0c-0.8,0.3-1.5,1.1-2.2,1.9c-0.6,0.6-1.2,1-1.9,1c-0.6,0-1.2-0.4-1.7-0.9c-0.8-0.8-1.6-1.8-2.4-2 c-1.5-0.5-3.8,0.8-5,0c-0.6-0.4-0.8-1.3-0.9-2.2c-0.2-0.9-0.2-1.9-0.7-2.6c-0.9-1.2-3.6-1.5-4-3c-0.5-1.4,1.5-3.2,1.5-4.8 c0-1.5-2-3.4-1.5-4.8c0.5-1.4,3.2-1.8,4-3c0.9-1.2,0.4-3.9,1.6-4.8c1.2-0.9,3.6,0.4,5,0c1.4-0.5,2.5-2.9,4.1-2.9 c1.6,0,2.7,2.5,4.1,2.9c1.4,0.5,3.8-0.8,5,0c1.2,0.9,0.7,3.6,1.6,4.8c0.9,1.2,3.6,1.5,4.1,3C59.3,58.3,57.3,60.1,57.3,61.7z"></path>
        </g>
        <circle class="st0" cx="44.1" cy="61.7" r="7.5"></circle>
      </g>
    </g>
    <line class="st0" x1="30.7" y1="13.1" x2="57.8" y2="13.1"></line>
    <line class="st0" x1="25.5" y1="24.4" x2="62.9" y2="24.4"></line>
    <line class="st0" x1="25.5" y1="31.1" x2="62.9" y2="31.1"></line>
    <line class="st0" x1="25.5" y1="37.8" x2="62.9" y2="37.8"></line>
  </g>
</svg>
