<?xml version="1.0" encoding="UTF-8"?>
<svg xmlns="http://www.w3.org/2000/svg" xmlns:xlink="http://www.w3.org/1999/xlink" version="1.1" id="Layer_1" x="0px" y="0px" width="400px" height="400px" viewBox="0 0 400 400" style="enable-background:new 0 0 400 400;" xml:space="preserve"> <g> <path d="M189.9,111c23.5-0.1,42.4-19.1,42.4-42.5c-0.1-23.4-19-42.2-42.4-42.2c-23.5,0.1-42.4,19.1-42.4,42.5 C147.6,92.1,166.5,111,189.9,111z"></path> <path d="M118.1,379.6c0.4,9.7,8.3,17.4,18.1,17.4c9.8,0,17.8-7.8,18.1-17.6l3.2-111.3c0,0,30.3,54.8,38.9,68.9 c5.6,9.2,22.8,38.7,31.8,51.8c3.5,5.1,9.1,7.8,14.8,7.8c3.1,0,6.2-0.8,9.1-2.5c8.8-5.1,11.5-16.5,6.1-25.1 c-14.5-23-44.5-75.3-49.8-92c-6-18.8-11.1-29.3-11.8-63.6c-0.4-19.2,11.2-45.1,9.5-60.2c-0.7-6.6-4-15.6-16-21.4 c-12.8-6.1-42.4-20.8-60.6-31c-10.8-6.1-9.6-18.1-4.5-28.5c2.5-5.3,14.4-33.7,22.4-49c3-5.8,1.6-12.9-3.5-17.1 C141.3,4,138.1,3,135,3c-4.8,0-9.6,2.5-12.2,7.2c-13.9,25.2-39.1,75.9-39,94.4c0,13.4,42.9,38.8,42.9,38.8s-10.5,81.5-11.2,127.9 C115.1,294.3,117,350.9,118.1,379.6z"></path> <path d="M281.5,150.8c-3.8,5.7-6.2,12-6.7,17.7c-0.5,6.5,1.4,11.5,5.5,14.3c1.9,1.3,4.2,2,6.7,2c2.7,0,5.6-0.8,8.6-2.3 c5.1-2.6,10-7.2,13.8-12.9c3.8-5.7,6.2-12,6.7-17.7c0.3-4.2-0.5-7.7-2.1-10.5c-0.5-1.4-1.3-2.8-2.6-3.8l-64.8-46.5 c-3.4-2.4-8-1.6-10.4,1.7c-2.4,3.4-1.6,8,1.7,10.4l52.7,37.8C287.2,143.6,284.1,146.9,281.5,150.8z"></path> </g> </svg>
