<?xml version="1.0" encoding="UTF-8"?>
<svg xmlns="http://www.w3.org/2000/svg" xmlns:xlink="http://www.w3.org/1999/xlink" version="1.1" id="Capa_1" x="0px" y="0px" width="1186.5px" height="532.7px" viewBox="0 0 1186.5 532.7" style="enable-background:new 0 0 1186.5 532.7;" xml:space="preserve"> <style type="text/css"> .st0{fill:#D02700;} </style> <g> <path id="path11" d="M500.5,1.5c-23.5,4.3-37.4,11.9-48.4,26.2c-10.3,13.6-15.3,25.4-19.8,47.2c-2.5,12.1-2.4,68.8,0.1,76.5 c0.8,2.7,1.6,6.1,1.6,7.5c0,5,6.5,22.3,11.5,30.9c4.7,8,19.1,23.1,22,23.1c0.7,0,1.8,0.7,2.5,1.5s2,1.5,3,1.5s2.3,0.7,3,1.5 s2.1,1.5,3.2,1.5s3.2,0.6,4.6,1.4c1.5,0.7,6.1,2.1,10.2,3.1c10.5,2.6,42.6,2.6,48.4,0.2c2.1-0.9,4.7-1.7,5.7-1.7 c2.7,0,13.8-5.4,20.9-10.1c3.3-2.2,9.3-7.6,13.4-12c9-9.7,8.8-9.1,8.5-38.3c-0.1-11.7,0.1-21.8,0.5-22.4c0.4-0.7,3.1-1.2,6.6-1.2 c6.5,0,7-0.5,7-7.4c0-8,1.9-7.7-37-7.4l-34.5,0.3l-0.9,3.7c-0.6,2.4-0.6,5.2,0,7.5l0.9,3.8l8.9,0.3c5,0.2,9.6,0.8,10.3,1.4 c1,0.8,1.3,7.1,1.3,28.3v27.3l-3.6,3.1c-9.5,8.4-17.8,11.3-31.8,11.3c-8.8,0-10.9-0.3-15.9-2.5c-18.4-8.5-29.9-32.4-33.7-70.7 c-3-30.3,0.8-68.5,8.6-86.8c0.8-1.8,1.4-3.7,1.4-4.2c0-2.2,7.8-14,12.6-19c8.7-9.1,15.8-12,29.7-12c16.2,0,26.8,4,35.4,13.4 c7.3,8,8.7,10.9,12.3,27.1l0.6,3l8.1,0.3c7.5,0.3,8.2,0.1,8.8-1.8c0.4-1.1,0.1-3.6-0.5-5.4c-0.6-1.9-1.5-8.1-1.9-13.8 c-1.4-16.7-2-18-11.5-23.6c-12-7.1-17.9-9.5-27.1-11.2c-2.7-0.5-7-1.3-9.5-1.9C529.5-0.5,509.9-0.2,500.5,1.5L500.5,1.5z"></path> <path id="path15" d="M169.9,5.1c-1,1.9-1.2,8.8-0.3,11.2c0.5,1.2,2,1.6,6.3,1.6c3.1,0,6.2,0.4,6.9,0.8c1,0.7,1.2,20.1,1,93.8 l-0.3,92.9l-6.2,0.3c-3.6,0.2-6.6,0.8-7.3,1.7c-0.6,0.8-1,4-0.8,7.7l0.3,6.3h51c52.5,0,57.5-0.3,68-4.2c15.3-5.7,24.4-12.2,33-23.3 c4.2-5.6,9.1-15,10.6-20.5c6.5-23.5,8.4-37.9,8.4-62c0-59.3-16.4-91.2-53-103.3c-10.8-3.6-19.8-4.2-68.8-4.5 C174.5,3.4,170.8,3.5,169.9,5.1z M262.5,19.8c17.9,4.6,26.9,14.7,34.5,38.6c4.8,15.4,5.4,21.4,5.4,53c0,26.8-0.2,31.1-2.2,40.5 c-3.9,19-7.6,28.4-14.8,38c-6.7,8.8-10.4,11.7-19.4,15c-4.9,1.8-40.5,2.6-42.5,1c-1.3-1.1-1.5-13.7-1.5-93.4 c0-72.4,0.3-92.5,1.3-93.5C224.9,17.4,255.3,18,262.5,19.8L262.5,19.8z"></path> <path id="path17" d="M348.4,4.7c-1,1-1.4,3.2-1.2,7.1l0.3,5.6l8.5,0.3c6.5,0.2,8.8,0.6,9.8,1.9c0.9,1.3,1.2,21.5,1.2,92.9 c0,103.6,0.9,94.1-8.9,93.6c-3.1-0.2-6.9,0.2-8.4,0.7c-2.7,1.1-2.8,1.3-2.5,7.8l0.3,6.8h74l0.3-7.1l0.3-7.1l-8.2-0.5 c-5.4-0.3-8.4-0.9-9-1.9c-0.5-0.8-0.9-41-0.9-93c0-73.8,0.3-91.9,1.3-92.7c0.7-0.6,4.6-1.2,8.7-1.4l7.5-0.3l0.3-5.9 c0.2-3.2-0.1-6.3-0.6-6.8s-16.8-1-36.1-1.2C355.4,3.3,349.6,3.5,348.4,4.7L348.4,4.7L348.4,4.7z"></path> <path id="path19" d="M606.3,3.6c-0.9,0.3-1.3,2.7-1.3,7.3v6.9l8.8,0.3l8.7,0.3l0.3,93.7l0.2,93.8l-2.2,0.1c-1.3,0.1-4.8,0.1-7.8,0 c-7.7-0.2-8.2,0.3-7.8,8.5l0.3,6.9h73l0.3-6.4c0.2-3.5-0.2-6.9-0.7-7.4c-0.6-0.6-3.2-0.9-5.8-0.8c-2.6,0.1-6-0.1-7.6-0.5l-2.7-0.6 l0.2-93.6l0.3-93.7l8-0.5l8-0.5l0.3-6.3c0.2-4.4-0.1-6.4-1-6.7C676.1,3.8,607.8,3.1,606.3,3.6z"></path> <path id="path21" d="M693.1,3.9C692,4.6,689,19.3,689,23.7c0,2-0.7,6.6-1.5,10.1c-1.9,8.1-1.2,9.1,6.4,9.1c6.9,0,10.1-1.9,10.1-5.9 c0-6.5,7.2-17.4,12.3-18.6c1.2-0.3,9.6-0.4,18.7-0.3l16.5,0.3v187l-5,0.3c-9.8,0.5-9.6,0.3-9.3,8.5l0.3,7.2l33.4,0.3 c24.8,0.2,33.7-0.1,34.2-0.9c0.4-0.7,0.5-3.7,0.3-6.8s-0.3-5.9-0.4-6.4c0-0.4-2.7-0.7-5.9-0.7c-4.1,0-6.5-0.5-7.5-1.6 c-1.4-1.4-1.6-11.2-1.6-92.9c0-50.2,0.3-92,0.6-92.9c0.5-1.4,3-1.6,17.3-1.6c15.4,0,16.9,0.2,20.6,2.3c4.4,2.5,9,10.2,10.1,17 c0.8,4.6,2.7,5.7,9.6,5.7c7.5,0,8.5-0.9,7-5.8c-0.7-2.2-1.2-5.7-1.2-7.8s-0.7-6.6-1.5-9.9s-1.5-7.6-1.5-9.5s-0.4-4-0.8-4.7 c-0.6-0.9-19.3-1.3-78.6-1.5C728.8,3.5,693.5,3.6,693.1,3.9L693.1,3.9z"></path> <path id="path23" d="M916,4.9c-1.1,1.1-2,2.8-2,3.7c0,1.5-4.1,14.9-7.5,24.3c-1.1,3.2-5.5,17-9.2,29.5c-0.9,2.7-2.1,6.6-2.8,8.5 s-2,6.2-3,9.5c-2.6,8.8-4.1,13.6-5.5,17.5c-0.6,1.9-1.6,5.1-2,7s-1.4,5.1-2,7c-3.2,8.8-3.8,10.9-5.5,16.5c-0.9,3.3-2.3,7.5-3.1,9.3 s-1.4,4.1-1.4,5.2s-0.6,3.4-1.4,5.2c-0.7,1.8-2.1,6-3.1,9.3c-0.9,3.3-2.3,7.5-3.1,9.3s-1.4,4.1-1.4,5.2s-0.6,3.4-1.4,5.2 c-0.8,1.8-2.2,6-3.1,9.3c-1,3.3-2.4,7.5-3.1,9.3c-0.8,1.8-1.4,4.1-1.4,5.1c0,4.2-3.1,6-10.5,6.3l-7,0.3v14h45l0.3-4.9 c0.5-8.4-0.1-9.6-5.4-9.6c-2.9,0-4.7-0.5-5-1.4c-0.3-0.7,1.1-6.2,3-12.2c2-6,4.3-13.4,5.2-16.4s2.2-7,3-8.8s1.4-4,1.4-4.9 s1-4.2,2.1-7.4c1.6-4.3,2.7-5.9,4.3-6.1c1.1-0.2,13-0.2,26.4,0l24.3,0.3l1.3,3.2c0.8,1.8,4.2,12,7.6,22.7 c3.4,10.7,6.9,21.4,7.7,23.8c2,5.7,1.3,7.2-3.5,7.2c-2.1,0-4.3,0.5-5,1.2c-1.9,1.9-1.6,12.4,0.4,13.2c2.4,0.9,62.7,0.7,64.3-0.3 c1-0.7,1.1-2.2,0.5-7.2l-0.9-6.4l-7.3-0.3c-7.1-0.3-7.3-0.4-8.7-3.5c-1.8-4.2-7.4-21.2-8.5-25.7c-0.4-1.9-1.7-6.2-2.9-9.5 c-2-5.5-3.7-10.8-6.1-19c-0.4-1.7-1.4-4.6-2.1-6.5c-0.6-1.9-1.7-5.1-2.4-7s-2-6.2-3-9.5c-0.9-3.3-2.3-7.5-3.1-9.3s-1.4-3.9-1.4-4.7 s-0.6-2.9-1.4-4.7c-0.7-1.8-2.1-6-3.1-9.3c-0.9-3.3-2.3-7.6-3-9.5c-0.8-1.9-3.4-10.3-6-18.5c-2.6-8.3-5.3-16.5-6.1-18.3 s-1.4-3.9-1.4-4.7s-0.6-2.9-1.4-4.7C943.3,37.2,935,11.4,935,9.5c0-0.9-1.1-2.8-2.5-4.1c-2-2.1-3.4-2.5-8.5-2.5 C919.3,2.9,917.6,3.3,916,4.9L916,4.9z M917,72.7c0.1,1.5,0.7,3.8,1.5,5.2c0.8,1.4,1.4,3.5,1.5,4.6c0,1.2,0.7,3.5,1.5,5 c0.8,1.6,1.5,3.8,1.5,4.9c0,1.2,0.5,2.6,1.1,3.2s1.5,2.9,1.9,5c0.5,2.1,1.4,5.4,2,7.3c3,8.3,3.8,10.8,5.5,16.1 c0.9,3,1.5,6.6,1.3,7.8l-0.3,2.4L915,134c-10.7-0.1-19.9-0.6-20.4-1.2c-0.6-0.5,0-3.8,1.6-8.6c1.4-4.3,4-12.5,5.8-18.3 c3.1-9.9,3.8-12.2,7-21c0.6-1.9,1.5-5.1,1.9-7c0.9-4.2,4-9.2,5.2-8.4C916.6,69.8,917,71.2,917,72.7z"></path> <path id="path25" d="M1029.4,4.3c-1.1,0.9-1.4,2.6-1.2,7.1l0.3,6l7,0.5l7,0.5v187l-6.2,0.5c-3.4,0.3-6.7,1-7.3,1.6 c-0.6,0.6-1,3.8-0.8,7.5l0.3,6.4l75.7,0.3c72.7,0.2,75.8,0.1,76.7-1.6c0.6-1,1.5-5.9,2.1-10.8c0.6-4.9,1.7-12.4,2.5-16.8 c0.8-4.3,1.2-8.2,0.9-8.7c-0.3-0.5-3.9-0.9-7.9-0.9c-8,0-9.5,1-9.5,6.2c-0.1,6.7-7.5,16.3-13.4,17.3c-5.8,1-71.4,0.1-72.6-1.1 c-0.7-0.7-0.9-29.8-0.8-94l0.3-92.9l6.5-0.5l6.5-0.5l0.3-5.9c0.2-3.2-0.1-6.3-0.7-6.9C1093.6,3.1,1031.4,2.9,1029.4,4.3L1029.4,4.3 L1029.4,4.3z"></path> <path id="path27" d="M165.5,250.9c-10.4,1.1-16.5,3-27,8.3c-4.9,2.4-13.5,8.8-17,12.5c-9.4,9.8-18.3,28.3-21.9,45.2 c-6.4,30.4-6.4,61.6,0.1,92c1.5,7.3,2.2,9.7,5.8,19c6.3,16.4,19.9,32.5,33,38.9c15.8,7.6,22.4,9.1,41.5,9.1s29.2-2.4,46.6-11.8 c3.1-1.7,14.3-12.6,17.7-17.2c7.3-10.1,12.9-24.2,17.3-43.5c1.6-6.9,1.9-12.6,1.9-40.5c0-33-0.6-39.8-4.7-51.5 c-0.5-1.7-1.2-4.1-1.5-5.5c-0.7-4-7.3-17.9-11.7-24.8c-8.3-13.2-23.6-24-39.6-27.9C194.3,250.2,180,249.5,165.5,250.9L165.5,250.9 L165.5,250.9z M195.3,269c6.1,3,14.9,11,16.8,15.3c0.5,1.1,1.3,2.8,1.8,3.6c0.8,1.4,1.7,3.4,5.5,13.7c4.3,11.6,6.6,33,6.6,61.5 c0,36.4-3.9,60.3-12.1,74.8c-0.5,0.8-1.3,2.4-1.8,3.5c-1.6,3.5-8.2,10.6-12.5,13.3c-19.1,12.3-42.7,5.2-53.2-16 c-4.6-9.1-6.4-13.6-6.4-15.7c0-1-0.7-3.5-1.5-5.4c-0.8-2-1.5-5.2-1.5-7.1s-0.7-6.5-1.6-10.3c-2.3-9.9-2.3-65.7,0-75.6 c0.9-3.8,1.6-8,1.6-9.4c0-5,4.3-18,9.3-28.2c3.3-6.6,14.4-18.1,17.6-18.1c0.9,0,2.5-0.7,3.5-1.5c1.4-1.1,4.7-1.5,11.8-1.5 C188.2,265.9,189.7,266.2,195.3,269L195.3,269L195.3,269z"></path> <path id="path29" d="M16.2,255.1c-1.4,1.4-1.6,7.7-0.2,11.2c0.9,2.4,1.4,2.6,7.5,2.6s6.6,0.2,7.5,2.6c1.4,3.5,1.3,190.8-0.1,199.4 c-0.5,3.6-1.4,9.4-1.9,13c-1,7.6-2.1,11.3-6.2,19.7c-3.4,7.1-10.5,14.3-14.1,14.3c-1.3,0-3.2,0.9-4.2,2c-1.7,1.8-1.6,2.1,1.2,7.2 c4.1,7.2,5.3,7.3,24.8,1.2c7.3-2.3,16-7.9,20.6-13.3c6.8-7.9,10.3-15,15.1-31c2.3-7.5,2.7-26.9,2.8-116.9c0-63.1,0.3-95,1-96.3 c0.9-1.6,2.2-1.9,7.4-1.9c7.9,0,8.8-0.9,8.4-8.7l-0.3-5.8l-34-0.3C25.8,253.9,17.1,254.2,16.2,255.1L16.2,255.1L16.2,255.1z"></path> <path id="path31" d="M269.6,255.5c-1,2.5-0.7,9.3,0.4,11.5c0.9,1.6,2.2,1.9,7.5,1.9c4,0,6.7,0.5,7.2,1.2c0.4,0.7,1.1,32.6,1.4,70.8 c0.6,65.3,0.8,70,2.7,78c4.3,17.9,9,27.3,18.4,36.9c9.7,9.9,20.3,15.6,32.8,17.6c16.6,2.6,20.2,2.9,28.3,1.7 c14.2-2,18.1-2.8,20.2-3.9c1.1-0.5,3.8-1.8,6-2.9c14.3-6.7,25.7-20.9,31.4-39.5c5.7-18.4,5.5-15.1,5.9-88.9 c0.2-45.2,0.7-68.9,1.4-69.8c0.6-0.7,3.4-1.2,6.9-1.2c4.7,0,6-0.4,6.9-1.9c1.5-2.8,1.2-10.6-0.4-12c-0.9-0.8-8.3-1.1-24.7-0.9 l-23.4,0.3v14l7,0.5l7,0.5l0.3,65.8c0.2,61.2,0.1,66.6-1.7,76.5c-2.2,12.3-3,14.9-7.9,25.2c-8.2,17.2-23.2,25-42.6,22.2 c-11.2-1.6-16-4-22.6-10.9c-6.4-6.7-7.3-8.2-9.9-16c-4.2-12.7-4.6-21.3-4.6-93.8v-69l7-0.5l7-0.5v-14l-33.6-0.3 C273.8,253.9,270.2,254,269.6,255.5L269.6,255.5L269.6,255.5z"></path> <path id="path33" d="M464.4,255.3c-0.3,0.7-0.4,4-0.2,7.2l0.3,5.9l7,0.5l7,0.5l0.3,92.9c0.1,67.8-0.1,93.2-0.9,94.2 c-0.8,0.9-3.4,1.4-7.6,1.4h-6.4l0.3,7.2l0.3,7.3h68v-15l-6.2-0.3c-3.5-0.2-6.6-0.9-7.2-1.6c-0.8-0.9-1-13.8-0.9-42.7l0.3-41.4 l11.1-0.3c13.1-0.3,12.5-0.7,18,12.3c2,4.9,4.1,9.4,4.4,10c0.4,0.5,3.2,5.7,6.2,11.5c7,13.2,8.8,16.4,15.5,27.5 c3,4.9,5.9,9.9,6.6,11c0.7,1.1,3,4.4,5.2,7.5c2.2,3,5.7,8.1,7.8,11.2s4.9,6.8,6.3,8.3l2.3,2.5l23.8-0.2l23.8-0.3v-15l-7.5-0.5 c-4.1-0.3-8.2-1-9.1-1.5c-2.8-1.7-15.3-17.2-23.4-29c-10.1-14.7-12.6-18.5-16.6-26.2c-2.2-4.3-4.4-8.5-4.9-9.3 c-0.7-1.4-1.6-3.3-5.4-12.3c-2-4.8-2.1-10.7-0.2-10.7c1.3,0,5.1-1.7,9.6-4.2c0.8-0.4,2.2-1.1,3-1.5c3.6-1.6,14.7-10.8,18.7-15.4 c2.4-2.8,6-8.5,8.1-12.7c3.6-7.5,3.7-8.1,4-20.4c0.4-13.6-0.9-20-5.8-27.9c-1.1-1.9-2.4-4.3-2.9-5.4c-1.3-2.8-9.7-10.6-15.1-14.1 c-6.7-4.3-17.9-9.4-20.8-9.4c-0.9,0-3.5-0.7-5.7-1.5C569.7,253.3,465.2,253.2,464.4,255.3L464.4,255.3L464.4,255.3z M563.5,270.6 c6.9,2.5,16.2,11.8,20.2,20.3c3.9,8.3,6.1,21.3,4.5,26c-0.7,1.8-1.2,4.5-1.2,5.9s-0.7,3.5-1.5,4.5c-0.8,1.1-1.5,2.7-1.5,3.5 c0,0.9-1.7,4.1-3.7,7.1c-9.6,14.1-14.3,16.6-32.5,17.5c-6.9,0.4-16.5,0.4-21.2,0l-8.6-0.7v-85.8h20.3 C555,268.9,559.4,269.2,563.5,270.6L563.5,270.6L563.5,270.6z"></path> <path id="path35" d="M661.4,255.3c-0.3,0.7-0.4,4-0.2,7.2l0.3,5.9l6,0.3c4.2,0.2,6.4,0.8,7.3,1.9c0.9,1.3,1.2,21.4,1.2,92.3 c0,103.2,0.9,94-8.7,94c-2.9,0-5.4,0.5-6,1.3c-1.4,1.9-0.8,12.8,0.8,13.8c2.2,1.4,45.6,1.1,46.5-0.2c1.1-1.9,0.4-13.3-0.9-14.1 c-0.7-0.4-3.2-0.8-5.7-0.8s-5.1-0.4-5.8-0.8c-1.7-1.1-1.9-151.7-0.2-151.7c0.7,0,2.8,3.2,4.8,7c2.1,3.9,4.6,8.4,5.8,10 c1.2,1.7,4,6.6,6.4,11s6.1,10.8,8.2,14.3c2.1,3.4,3.8,6.4,3.8,6.7c0,0.5,11,19.5,13,22.5c0.6,0.8,1.3,2.2,1.7,3s2.6,4.6,4.8,8.5 c2.3,3.8,4.4,7.7,4.8,8.5c0.4,0.8,1.6,2.8,2.7,4.5c1.1,1.6,2.4,3.9,2.9,5s2.1,3.7,3.5,5.8c1.4,2.1,2.6,4.4,2.6,5.2s0.5,1.7,1.1,2 c0.5,0.4,1.5,1.7,2,2.8c0.5,1.2,1.8,3.5,2.9,5.2c1.1,1.6,2.4,3.9,3,5s2.6,4.7,4.5,8s4,6.9,4.5,8c0.6,1.1,1.9,3.3,2.9,5 c1.8,2.7,5.3,9.1,8.7,15.3c2.2,4.2,4.4,5.1,12.9,5.2c4.4,0,8.6-0.4,9.2-0.8c1-0.6,1.3-22.5,1.5-101.8l0.3-100.9l5-0.3 c9.6-0.5,9.5-0.4,9.5-7.7c0-5.9-0.2-6.5-2.2-7c-1.3-0.3-12-0.4-23.8-0.3l-21.5,0.3l-0.3,4.9c-0.6,9-0.1,9.6,7.3,9.6 c6.2,0,6.6,0.2,7.6,2.7c1.2,3.2,1.1,124.3-0.1,126.3c-0.8,1.3-4.8-4.1-10-13.6c-1.2-2.2-3-5.3-4.1-6.9c-1-1.7-2.2-3.7-2.6-4.5 c-0.8-1.7-14.8-25.7-16.3-28c-0.6-0.8-1.5-2.4-2-3.5c-0.6-1.1-1.9-3.4-3-5c-1.1-1.7-2.3-3.7-2.7-4.5s-3.2-5.8-6.3-11 s-5.9-10.2-6.3-11c-0.4-0.8-1.6-2.9-2.7-4.5c-1.1-1.7-2.4-3.9-3-5c-0.5-1.1-1.4-2.7-2-3.5c-1.4-2.1-15.4-26.2-16.3-28 c-1.1-2.1-2.9-5.1-6.2-10.4l-2.9-4.6h-23.8C666.6,253.9,661.8,254.2,661.4,255.3L661.4,255.3L661.4,255.3z"></path> <path id="path37" d="M915.4,255c-0.4,0.7-1.1,2.9-1.5,4.8c-0.4,2-1.3,5.2-1.9,7.1c-0.7,1.9-1.8,5.1-2.5,7s-2.1,6.2-3,9.5 c-1,3.3-3,9.8-4.5,14.5s-3.5,11.2-4.5,14.5s-2.3,7.6-3,9.5s-2,6.2-3,9.5s-3,9.8-4.5,14.5c-4.1,12.7-8.8,27.8-10.6,34 c-0.9,3-2.3,7-3,8.8c-0.8,1.8-1.4,4.1-1.4,5.2s-0.6,3.4-1.4,5.2c-0.8,1.8-2.2,6-3.1,9.3c-1.7,5.6-2.3,7.7-5.5,16.5 c-0.6,1.9-1.6,5.1-2,7s-1.4,5.1-2,7c-3.1,8.6-4,11.7-4,13.1c0,0.9-1,2.5-2.3,3.7c-1.9,1.8-3.5,2.2-9,2.2H836v6.9 c0,5.4,0.4,7,1.6,7.5c3.1,1.2,41.9,0.7,43.2-0.6c1.6-1.6,1.6-12.4,0-13.5c-0.7-0.4-2.9-0.8-4.8-0.8c-3.1,0-3.5-0.3-3.8-2.8 c-0.3-2.7,1.5-9.6,4.4-16.5c0.8-1.8,1.4-4.1,1.4-5.2s0.6-3.4,1.4-5.2c1.8-4,7.6-22.9,7.6-24.5c0-2.8,4.4-3.3,28.4-3.3 c26.3,0,26.7,0.1,28.1,5.3c1,3.9,6.7,21.8,11.2,35.4c2.3,7.3,4.3,13.9,4.3,14.7c0,1.8-2.5,2.8-5.4,2c-3.5-0.8-5.6,1.9-5.6,7.2 c0,8.9-2.1,8.4,33.3,8.4c23,0,31.6-0.3,32.5-1.2c1.2-1.2,1.6-9.5,0.6-12.2c-0.5-1.2-2.1-1.6-6.8-1.6c-3.4,0-7-0.6-7.9-1.3 c-0.9-0.6-2.8-4.6-4.3-8.7c-2.5-7.4-2.9-8.8-5.8-18.5c-0.8-2.8-2.6-8.2-3.9-12c-1.3-3.9-4.5-13.8-7.1-22c-2.6-8.3-5.2-16.4-5.8-18 c-0.5-1.7-1.3-4.4-1.8-6c-1.1-3.9-2.9-9.1-4.6-13.3c-0.8-1.8-1.4-4-1.4-5c0-0.9-0.7-3-1.5-4.6c-0.8-1.5-1.5-3.4-1.5-4.2 c0-0.7-0.6-2.8-1.4-4.6c-0.7-1.8-2.1-6-3.1-9.3c-0.9-3.3-2.3-7.6-3-9.5s-2.7-8.2-4.5-14s-3.8-12.1-4.5-14s-3.4-10.3-6-18.5 c-6.8-21.6-5.5-19.9-15.2-20.3C918.7,253.9,915.9,254.2,915.4,255L915.4,255L915.4,255z M917.3,323.6c0.2,1.6,0.9,4.1,1.5,5.8 c2.8,8.3,3.4,10.2,4.2,13c0.5,1.6,1.4,4.6,2.1,6.5c0.6,1.9,1.7,5.1,2.4,7s2,6.2,3,9.5c0.9,3.3,2.4,7.6,3.2,9.6s1.3,4.9,1.1,6.5 l-0.3,2.9l-18.5,0.3c-14.3,0.2-19-0.1-20.4-1.1c-2-1.5-2.2-0.5,6.5-26.9c1.6-4.7,2.9-9.3,2.9-10.1s0.7-2.8,1.5-4.3 c0.8-1.6,1.5-3.8,1.5-4.9c0.1-1.1,0.7-3.1,1.5-4.5s1.4-3.4,1.5-4.5c0-2.6,3.8-8.8,4.9-8.1C916.4,320.6,917,322.1,917.3,323.6 L917.3,323.6L917.3,323.6z"></path> <path id="path39" d="M1025.4,255.2c-0.3,0.8-0.4,4.1-0.2,7.3l0.3,5.9l7,0.5l7,0.5v187l-7,0.5l-7,0.5v15h152l0.9-3.8 c0.5-2,1.5-3.7,2.3-3.7c1,0,1.3-3.4,1.3-16v-16h-6.4c-5.6,0-6.7,0.3-8,2.2c-0.9,1.2-1.6,3.2-1.6,4.4c0,3.1-3.5,10.6-6.2,13.1 c-4.3,4.1-6.7,4.3-43.2,4.3c-28.6,0-35.6-0.3-36.5-1.4c-0.8-1-1-26.3-0.9-93.7l0.3-92.4l6.5-0.5l6.5-0.5v-14l-33.3-0.3 C1031.7,253.9,1025.9,254.1,1025.4,255.2L1025.4,255.2L1025.4,255.2z"></path> <rect id="rect1600" y="3.9" class="st0" width="141.8" height="219.6"></rect> </g> </svg>
