<?xml version="1.0" encoding="UTF-8"?>
<svg xmlns="http://www.w3.org/2000/svg" xmlns:xlink="http://www.w3.org/1999/xlink" version="1.1" id="Layer_1" x="0px" y="0px" width="1649.3px" height="332.6px" viewBox="0 0 1649.3 332.6" style="enable-background:new 0 0 1649.3 332.6;" xml:space="preserve"> <style type="text/css"> .st0{fill:#FF0000;} </style> <g> <path class="st0" d="M146.4,196.5H13c-4.4,0-7.9,1.9-10.7,5.7c-1.5,2.3-2.2,4.6-2.2,6.7v111c0,2.6,0.9,5.1,2.8,7.6 c2.8,3.3,6.2,5,10.2,5h22.3l0.2-50.6H122v-0.1l0.1-0.1v-35.1c-0.1,0-0.1,0-0.1,0c0,0,0-0.1,0-0.1H35.4v-14.7H159v-22.3 c0-3.2-1-6.1-3.1-8.6C153,198,149.8,196.5,146.4,196.5z"></path> <path class="st0" d="M204.6,292.7c0-0.2,0-0.3,0-0.4s-0.1-0.2-0.2-0.3h0.2l-0.2-0.2v-93.9c0-0.1,0-0.2,0.1-0.3 c0.1-0.3,0.1-0.6,0.1-1H182c-3.4,0-6.4,1.3-9,3.8c-2.5,2.7-3.8,5.6-3.8,8.8l0.2,111.2v1c0.1,1.8,0.8,3.6,2,5.5 c2.8,3.8,6.4,5.8,10.8,5.8H317c1.4,0,2.9-0.3,4.4-0.8c5.5-2.5,8.2-6.8,8.2-12.8v-21.6h-125V292.7z"></path> <path class="st0" d="M370.7,196.5h-28.6v122.7c0,3.8,1.2,6.9,3.6,9.4c2.8,2.7,5.8,4,9,4h29.4V210.2c0-2.8-0.6-5.1-1.7-7 C379.8,198.7,375.9,196.5,370.7,196.5z"></path> <path class="st0" d="M558.4,196.5H453.8c-8,0-15.9,1.8-23.5,5.3c-2.8,1.2-5.5,2.7-8,4.4c-2.1,1.2-5,3.5-8.8,6.9 C401.8,225,396,239,396,255.1V274c0,13,3.8,24.7,11.4,35.2c1.4,1.9,3.5,4.2,6.1,6.8c2.6,2.4,4.8,4.3,6.7,5.8 c10.5,7.2,21.6,10.8,33.4,10.8h104.8c3,0,5.7-0.9,8.2-2.8c3.2-2.9,4.8-6.2,4.8-9.8v-69.4h-86.7c-1,0-2.2,0.1-3.4,0.4 c-3.4,1.2-5.8,3.1-7.2,5.7c-1.4,1.7-2.1,4.4-2.1,8v16h57.9v16.8h-77c-1.4,0-3.5-0.4-6.2-1.3c-1.4-0.5-2.8-1.2-4.4-2.1 c-1.3-0.8-2.8-2.1-4.6-3.6c-4.2-4.6-6.3-9.8-6.3-15.6v-20.4c0-4.8,1.5-9.2,4.6-13.4c4.9-6.1,11-9.2,18.4-9.2h117.4v-22 c0-2.2-0.5-4.2-1.4-6.1C567.6,198.9,563.6,196.5,558.4,196.5z"></path> <path class="st0" d="M756.4,196.5h-22.8V248l-0.2,0.2h-93.8c-4,0-7.2-1.3-9.8-3.8c-2.5-2.6-3.8-5.6-3.8-9v-38.9h-22.7 c-1.8,0-3.6,0.5-5.6,1.5c-4.7,2.7-7,6.8-7,12.2V319c0,3.8,1.1,6.9,3.4,9.4c2.7,2.8,5.8,4.2,9.4,4.2H626v-49.2h94.3 c4.2,0,7.7,1.6,10.4,4.8c0.8,1.2,1.4,2.2,1.8,3.2c0.7,1.4,1.1,3.5,1.1,6.2v35H756c2.4,0,4.7-0.6,6.8-2c4-2.7,6-6.4,6-11V209.8 c0-3.8-1.3-7.1-4-9.7C762,197.7,759.2,196.5,756.4,196.5z"></path> <path class="st0" d="M955.6,199.9c-2.5-2.3-5.6-3.4-9.4-3.4H795c-3,0-5.3,0.6-6.9,1.7c-0.7,0.3-1.9,1.2-3.4,2.5 c-1.4,1.6-2.4,3.6-3,6.2c-0.3,0.1-0.4,2.4-0.4,7v18h70.4v88c0,2.6,0.9,5.1,2.8,7.6c0.3,0.4,0.6,0.7,0.8,0.9 c0.1,0.1,0.1,0.2,0.2,0.3c2.8,2.5,5.8,3.8,9,3.8h22.7V232H960v-23c0-1.6-0.6-3.5-1.8-5.8C957.9,202.3,957,201.2,955.6,199.9z"></path> <path class="st0" d="M1136.5,281.6c1.2-0.9,2.8-2.4,4.6-4.4c7-8.3,10.5-18.2,10.5-29.8c0-13.8-4.9-25.3-14.6-34.5 c-2.4-2.1-4.6-3.8-6.6-5c-11.8-7.6-26.6-11.4-44.1-11.4h-99.8c-2.8,0-5.4,0.9-7.8,2.8c-3.2,2.9-4.8,6.2-4.8,9.8v123.4h22 c2.8,0,5.3-0.7,7.6-2.2c3.7-2.9,5.6-6.4,5.6-10.5v-22.2h2.1l75.2-0.4c16.6,0,30.8-3.4,42.6-10.3 C1131,285.8,1133.5,284,1136.5,281.6z M1107.1,255.8c-0.7,0.7-1.3,1.4-1.9,2c-3.3,3.2-8.8,4.8-16.4,4.8H1009v-30.8h80 c4.4,0,8.1,0.5,11,1.6c6.5,2.6,9.8,7.2,9.8,13.9C1109.8,250.4,1108.9,253.3,1107.1,255.8z"></path> <path class="st0" d="M1285.4,254.1c-3.5-6.1-6.5-11.5-9.2-16.2c-9.4-16.7-14.5-25.5-15-26.4c-0.2-0.4-0.4-0.8-0.7-1.2 c-1.6-3-2.9-5.2-3.9-6.6c-3.9-4.8-8.8-7.2-14.6-7.2h-28.6c-5.2,0-9.7,2-13.5,6.1c-1.2,1.5-2.3,3.2-3.3,5.2 c-0.4,0.6-4.6,8-12.7,22.3c-5.2,9.2-12,21.2-20.5,36.1c-10.7,18.7-23.2,40.8-37.6,66.2c0,0.1,0,0.1,0,0.1c0,0,0.1,0,0.2,0h29.8 c6.6,0,11.8-2.7,15.8-8l8.8-15.4c0.1-0.4,0.2-0.6,0.3-0.8c0.2-0.1,0.3-0.2,0.4-0.2h93.4c0.1,0.1,0.7,1.1,1.8,3 c1.2,2.2,3.2,5.6,5.9,10.2c3.8,7.5,9.6,11.2,17.6,11.2h30.1l-11.4-20.4C1317.8,311.3,1306.8,292,1285.4,254.1z M1197.2,279.3 l30.6-53.8c0.4,0.8,10.6,18.8,30.6,53.8H1197.2z"></path> <path class="st0" d="M1456.4,199.9c-2.5-2.3-5.6-3.4-9.4-3.4h-151.3c-3,0-5.3,0.6-6.9,1.7c-0.7,0.3-1.9,1.2-3.4,2.5 c-1.4,1.6-2.4,3.6-3,6.2c-0.3,0.1-0.4,2.4-0.4,7v18h70.4v88c0,2.6,0.9,5.1,2.8,7.6c0.3,0.4,0.6,0.7,0.8,0.9 c0.1,0.1,0.1,0.2,0.2,0.3c2.8,2.5,5.8,3.8,9,3.8h22.7V232h72.9v-23c0-1.6-0.6-3.5-1.8-5.8C1458.7,202.3,1457.8,201.2,1456.4,199.9z "></path> <path class="st0" d="M1645.3,200.1c-2.8-2.4-5.6-3.6-8.4-3.6h-22.8V248l-0.2,0.2h-93.8c-4,0-7.2-1.3-9.8-3.8 c-2.5-2.6-3.8-5.6-3.8-9v-38.9h-22.7c-1.8,0-3.6,0.5-5.6,1.5c-4.7,2.7-7,6.8-7,12.2V319c0,3.8,1.1,6.9,3.4,9.4 c2.7,2.8,5.8,4.2,9.4,4.2h22.5v-49.2h94.3c4.2,0,7.7,1.6,10.4,4.8c0.8,1.2,1.4,2.2,1.8,3.2c0.7,1.4,1.1,3.5,1.1,6.2v35h22.4 c2.4,0,4.7-0.6,6.8-2c4-2.7,6-6.4,6-11V209.8C1649.3,206,1648,202.7,1645.3,200.1z"></path> <path class="st0" d="M632.1,46.1l27.7-2.2l13.8-1.1l13.9-0.9c64.1-4.3,128.2-6.4,192.4-6.5c3.6,10.3,13.4,17.6,25,17.6 c14.6,0,26.5-11.9,26.5-26.5S919.4,0,904.8,0c-11.3,0-20.9,7.1-24.7,17c-64.7,1.4-129.3,4.9-193.8,10.6l-13.9,1.2l-13.9,1.4 l-27.8,2.8c-9.2,1-18.5,2.2-27.7,3.2l-13.9,1.6c-4.6,0.5-9.2,1.2-13.8,1.8l-27.6,3.7c-9.2,1.3-18.4,2.7-27.6,4.1l-13.8,2.1 l-13.8,2.3c-9.2,1.5-18.4,3-27.5,4.6c-73.2,12.8-146,28.4-217.7,47.8c-35.9,9.7-71.5,20.2-106.8,31.9 c-17.6,5.8-35.2,11.9-52.6,18.3c-17.4,6.5-34.7,13.2-51.7,20.6c17.1-7.1,34.6-13.4,52.1-19.5c17.5-6.1,35.2-11.8,52.9-17.2 c35.4-10.9,71.2-20.7,107.2-29.5c72-17.8,144.8-31.8,218.1-43c9.2-1.4,18.3-2.6,27.5-4l13.8-2l13.8-1.8c9.2-1.2,18.4-2.4,27.6-3.5 l27.6-3.1c4.6-0.5,9.2-1.1,13.8-1.5l13.8-1.3C613.6,47.8,622.8,46.9,632.1,46.1z"></path> </g> </svg>
