<?xml version="1.0" encoding="UTF-8"?>
<svg xmlns:cc="http://creativecommons.org/ns#" xmlns:dc="http://purl.org/dc/elements/1.1/" xmlns:inkscape="http://www.inkscape.org/namespaces/inkscape" xmlns:rdf="http://www.w3.org/1999/02/22-rdf-syntax-ns#" xmlns:sodipodi="http://sodipodi.sourceforge.net/DTD/sodipodi-0.dtd" xmlns:svg="http://www.w3.org/2000/svg" xmlns="http://www.w3.org/2000/svg" xmlns:xlink="http://www.w3.org/1999/xlink" version="1.1" id="svg3100" x="0px" y="0px" viewBox="0 0 545.8 314.2" style="enable-background:new 0 0 545.8 314.2;" xml:space="preserve">
  <style type="text/css"> .st0{fill:#F37021;} .st1{fill:#CC004C;} .st2{fill:#6460AA;} .st3{fill:#0089D0;} .st4{fill:#0DB14B;} .st5{fill:#FCB711;} </style>
  <g>
    <path id="path3115" class="st0" d="M64,88.8c-22.7,20.5-30.9,67,9.9,94.2l163,111.8l-79-181.1C141.4,71,96,61.7,64,88.8"></path>
    <path id="path3117" class="st1" d="M204.3,0.8c-26.5,0.5-66.3,32.1-48.6,80.3l81.7,192.8l28.7-202.8 C272.8,20.7,234.7-2.6,204.3,0.8"></path>
    <path id="path3119" class="st2" d="M279,63.3h15.5c0,0,8.3,0,9.4,3.9c-6.1,5-22.6,5.6-20.4,32.1l26,174.4l81.2-193.3 c16.4-43-18.4-79.1-49.4-80.2c-1.4-0.1-2.9-0.2-4.4-0.2C309.2,0,277.4,20.2,279,63.3"></path>
    <path id="path3121" class="st3" d="M387.2,115.4l-76.8,178.9l162.9-112.4c37.6-26.6,31.5-69.2,10.5-90.3 c-8.8-9.9-25-17.6-42.1-17.6C421.5,74,399.8,84.8,387.2,115.4"></path>
    <path id="path3123" class="st4" d="M455.2,207.3l-153,106.9h188.4c38.7,0,63.5-39.9,52.5-76.4c-7.4-23-29.3-41-54.7-41.1 C477.6,196.7,466.3,199.9,455.2,207.3"></path>
    <path id="path3125" class="st5" d="M59.6,314.2h185.7L92.2,207.3c-35.4-22.7-75.1-9.4-89.5,28.3C-9.5,278.8,20.9,314.2,59.6,314.2"></path>
  </g>
</svg>
