<?xml version="1.0" encoding="UTF-8"?>
<svg xmlns="http://www.w3.org/2000/svg" preserveAspectRatio="xMidYMid slice" width="700px" height="188px" viewBox="0 0 144 39" fill="none">
  <path d="M0 19.1325C0 6.08266 11.3786 0.0383773 20.351 0.0383773C26.0115 0.0383773 28.27 2.01477 31.1885 2.01477C31.9886 2.01477 32.5393 1.50436 32.7792 0.661995H33.5045V9.97402H32.7792C31.3017 4.40945 27.0649 0.706125 20.351 0.706125C13.637 0.706125 7.87291 4.92178 7.87291 18.6317C7.87291 32.3398 12.6565 38.3054 20.0344 38.3054C26.7637 38.3054 28.1855 35.3888 28.1855 31.9541V29.7283C28.1855 20.2301 27.7193 19.6909 24.8928 19.098V18.5799H35.3638V37.298H34.7556C34.6462 36.5573 34.0897 35.099 32.5969 35.099C30.1562 35.099 27.2223 38.9501 20.0363 38.9501C8.77092 38.9501 0.00383553 30.4018 0.00383553 19.1287M59.0516 39C68.8913 39 78.3089 30.4536 78.3089 19.3801C78.3089 8.30848 68.8933 0 59.0516 0C49.2119 0 39.8021 8.40826 39.8021 19.3801C39.8021 30.3538 49.2119 39 59.0516 39ZM59.0516 38.3533C52.7733 38.3533 47.8246 32.879 47.8246 19.3801C47.8246 5.88118 53.2818 0.644728 59.0516 0.644728C64.8215 0.644728 70.3285 5.88118 70.3285 19.3801C70.3285 32.879 65.3396 38.3533 59.0516 38.3533ZM80.6192 38.2766H107.502C108.26 38.2766 108.465 38.2267 108.682 37.0582L109.992 29.9624H109.265C106.976 36.2503 104.877 37.6511 97.4223 37.6511H90.835V14.1359C90.835 2.71321 91.0345 1.81329 93.8955 1.11292V0.594836H80.6211V1.11292C83.3228 1.81329 83.4724 2.71321 83.4724 14.1359V24.6856C83.4724 36.1409 83.3228 37.0083 80.6211 37.7604V38.2785L80.6192 38.2766ZM112.433 38.2766H125.55V37.7585C122.889 37.0063 122.699 36.1409 122.699 24.6837V18.8831H133.124C138.804 18.8831 139.12 20.8403 139.721 23.2158H140.306V13.8193H139.721C139.12 16.3042 138.804 18.2384 133.124 18.2384H122.701V1.21845H130.754C139.563 1.21845 140.469 2.78229 142.449 7.66569H143.132L142.265 1.7941C142.108 0.600593 141.845 0.591001 141.269 0.591001H112.435V1.10908C115.137 1.80945 115.286 2.70938 115.286 14.1321V24.6818C115.286 36.1371 115.137 37.0044 112.435 37.7566V38.2747L112.433 38.2766Z" fill="black"></path>
</svg>
