<?xml version="1.0" encoding="UTF-8"?>
<svg xmlns="http://www.w3.org/2000/svg" xmlns:xlink="http://www.w3.org/1999/xlink" version="1.1" id="Layer_1" x="0px" y="0px" viewBox="0 0 251.7 85.2" style="enable-background:new 0 0 251.7 85.2;" xml:space="preserve">
  <style type="text/css"> .st0{fill:#2787D6;} </style>
  <path class="st0" d="M201.6,41.2c0-0.6-0.1-1.1-0.3-1.4c-0.2-0.3-0.4-0.7-0.6-1c-0.2-0.4-0.5-0.6-0.9-0.8c-0.4-0.2-0.8-0.2-1.3-0.2 c-0.9,0-1.7,0.4-2.5,1.1c-0.8,0.7-1.4,1.7-1.9,2.8c-0.5,1.1-0.9,2.1-1.2,3.1c-0.3,1-0.5,1.9-0.6,2.7h8.9l0.1-0.5 c0.1-0.7,0.1-1.1,0.1-1.3s0.1-0.6,0.1-1.4c0.1-0.7,0.1-1.3,0-1.6C201.7,42.3,201.7,41.8,201.6,41.2z"></path>
  <path class="st0" d="M24.6,0L24.6,0L7.1,0L0,85.2l24.6,0v0h219.9L251.7,0L24.6,0z M53.4,65.2l-6.7-27.3l-0.1,0.1l-0.3,4.6L46,44.5 l-3.3,20.8h-8.9L40.9,20h8.6l6.8,27.3l0.2-0.1c-0.2-1.9-0.1-4.2,0.4-6.8L60,20H69l-7.1,45.2H53.4z M91.9,28.4h-9.1l-1.6,9.8h8 L88,46.6h-8l-1.6,10.2h9.2l-1.3,8.4H68.1L75.3,20h18L91.9,28.4z M118.5,65.2l-0.8-23.9l0.1-8.3h-0.1c-0.2,0.6-0.5,1.5-0.8,2.6 c-0.4,1.1-0.7,2.2-1,3.1c-0.3,0.9-0.6,1.8-0.9,2.6l-8.9,23.9h-7.8l-2-45.2h9.1l0.4,21.6c0,1,0,2,0,3c-0.1,1-0.1,2.2-0.3,3.6 c-0.1,1.4-0.2,2.4-0.2,3h0.1c0.2-0.6,0.5-1.6,0.8-3c0.4-1.4,0.7-2.6,1-3.6c0.3-1,0.6-2,1-3l7.9-21.6h7.1l0.8,31.2h0.1 c0.2-0.7,0.4-1.7,0.7-3c0.3-1.3,0.5-2.4,0.8-3.5c0.3-1,0.5-2,0.9-3l7-21.7h9.4l-16.5,45.2H118.5z M163.4,30.2 c-1.9-1.9-3.9-2.9-6.1-2.9c-1.4,0-2.6,0.4-3.5,1.2c-0.9,0.8-1.5,1.9-1.7,3.2c-0.2,1-0.1,1.9,0.3,2.8c0.4,0.9,0.9,1.6,1.6,2.3 c0.7,0.7,1.4,1.4,2.3,2.1c0.9,0.7,1.7,1.5,2.6,2.2c0.8,0.8,1.6,1.7,2.2,2.6c0.7,0.9,1.1,2.1,1.4,3.5c0.3,1.4,0.3,2.9,0,4.6 c-0.6,4.2-2.3,7.6-5,10.2c-2.7,2.6-6.1,3.9-10.2,3.9c-1.3,0-2.7-0.2-4-0.6c-1.3-0.4-2.5-1-3.3-1.7l1.4-8.5c2.1,1.6,4.2,2.4,6.4,2.4 c1.5,0,2.8-0.4,3.9-1.3c1.1-0.9,1.8-2.1,2-3.6c0-0.4,0-0.8,0.1-1.1c0.1-0.3,0-0.6-0.1-0.9c-0.1-0.3-0.2-0.6-0.3-0.8 c-0.1-0.2-0.2-0.5-0.4-0.8c-0.2-0.3-0.4-0.5-0.6-0.7c-0.1-0.2-0.4-0.4-0.7-0.6c-0.3-0.2-0.5-0.4-0.7-0.6c-0.2-0.1-0.4-0.3-0.8-0.6 c-0.3-0.2-0.6-0.4-0.7-0.6c-2.6-1.9-4.4-3.9-5.4-5.8c-1-2-1.3-4.5-0.8-7.6c0.6-3.8,2.1-6.9,4.6-9.5c2.5-2.6,5.6-3.8,9.3-3.8 c2.8,0,5.3,0.7,7.6,2.2L163.4,30.2z M184.8,40.6c-0.1,0.7-0.2,1.6-0.3,2.6l-3.5,22h-3.9l3.4-21.6c0.2-1.2,0.3-2.3,0.3-3.3 c0.1-1-0.1-1.7-0.6-2.3c-0.4-0.6-1.2-0.9-2.2-0.9c-0.8,0-1.6,0.2-2.2,0.6c-0.7,0.4-1.2,0.8-1.6,1.3c-0.4,0.5-0.8,1.2-1.1,2 c-0.3,0.8-0.5,1.5-0.6,2.1c-0.1,0.6-0.2,1.3-0.4,2.1l-3.2,20h-3.9l4.9-30.8h3.9l-0.4,2.5c2-2,4.2-2.9,6.5-2.9c1,0,1.9,0.2,2.6,0.6 c0.7,0.4,1.2,0.9,1.5,1.4c0.3,0.6,0.5,1.3,0.6,2.2C184.9,39.1,184.9,39.9,184.8,40.6z M205.5,45.2c-0.1,1.2-0.2,2.4-0.4,3.6 l-0.3,1.9h-13l-0.1,0.9c-0.2,1-0.3,2-0.3,3c0,1,0,2.1,0.1,3.3c0.1,1.2,0.4,2.2,1,3c0.6,0.8,1.3,1.2,2.3,1.2c0.8,0,1.5-0.2,2.2-0.8 c0.6-0.5,1.1-1.2,1.5-2c0.4-0.8,0.7-1.6,0.9-2.3c0.2-0.7,0.4-1.5,0.5-2.2h4c-0.2,1.3-0.6,2.5-1,3.7c-0.5,1.2-1,2.4-1.8,3.5 c-0.7,1.1-1.6,2-2.8,2.7s-2.4,1-3.7,1c-6.1,0-8.4-5.3-6.7-15.8c0.2-1.3,0.5-2.6,0.8-3.8c0.3-1.3,0.8-2.6,1.4-4.2 c0.6-1.5,1.3-2.8,2.1-4c0.8-1.1,1.8-2.1,3-2.8c1.2-0.8,2.5-1.2,4-1.2c1.4,0,2.5,0.4,3.4,1c0.9,0.7,1.6,1.6,2,2.6s0.7,2.2,0.8,3.7 C205.6,42.7,205.6,44,205.5,45.2z M222,38.1h-5.1l-4.3,27.2h-3.9l4.3-27.2h-3.3l0.5-3.6h3.3l1.3-8.4h3.9l-1.3,8.4h5.1L222,38.1z"></path>
</svg>
